<?xml version="1.0" encoding="utf-8"?>
<!-- Generator: Adobe Illustrator 25.3.1, SVG Export Plug-In . SVG Version: 6.00 Build 0)  -->
<svg version="1.1" id="Layer_1" xmlns="http://www.w3.org/2000/svg" xmlns:xlink="http://www.w3.org/1999/xlink" x="0px" y="0px"
	 viewBox="0 0 616.7 102.13" style="enable-background:new 0 0 616.7 102.13;" xml:space="preserve">
<style type="text/css">
	.st0{fill:url(#SVGID_1_);stroke:#353535;stroke-miterlimit:10;}
	.st1{fill:#E6E6E5;}
</style>
<g>
	<linearGradient id="SVGID_1_" gradientUnits="userSpaceOnUse" x1="308.3485" y1="0.1014" x2="308.3485" y2="595.0511">
		<stop  offset="0" style="stop-color:#FFFFFF"/>
		<stop  offset="9.182262e-03" style="stop-color:#F2F2F2"/>
		<stop  offset="0.053" style="stop-color:#BABABA"/>
		<stop  offset="0.0981" style="stop-color:#888888"/>
		<stop  offset="0.1437" style="stop-color:#5F5F5F"/>
		<stop  offset="0.1897" style="stop-color:#3C3C3C"/>
		<stop  offset="0.2363" style="stop-color:#222222"/>
		<stop  offset="0.2839" style="stop-color:#0F0F0F"/>
		<stop  offset="0.3329" style="stop-color:#040404"/>
		<stop  offset="0.3855" style="stop-color:#000000"/>
	</linearGradient>
	<path class="st0" d="M586.63,100.33H30.07c-10.6,0-19.19-8.59-19.19-19.19V20.99c0-10.6,8.59-19.19,19.19-19.19h556.57
		c10.6,0,19.19,8.59,19.19,19.19v60.15C605.82,91.74,597.23,100.33,586.63,100.33z"/>
	<path class="st1" d="M585.65,96.85H32.3c-9.19,0-16.65-7.45-16.65-16.65V21.92c0-9.19,7.45-16.65,16.65-16.65h553.35
		c9.19,0,16.65,7.45,16.65,16.65v58.28C602.3,89.4,594.85,96.85,585.65,96.85z"/>
	<g>
		<path d="M245.41,58.41v-3.46c0.31,0.28,0.68,0.54,1.11,0.76c0.43,0.23,0.88,0.42,1.36,0.57s0.96,0.28,1.44,0.36
			s0.92,0.13,1.33,0.13c1.41,0,2.47-0.24,3.16-0.71s1.04-1.15,1.04-2.05c0-0.48-0.12-0.9-0.35-1.25c-0.23-0.35-0.55-0.68-0.97-0.97
			s-0.9-0.57-1.46-0.84s-1.16-0.55-1.8-0.84c-0.69-0.37-1.33-0.74-1.92-1.12c-0.59-0.38-1.11-0.79-1.55-1.25
			c-0.44-0.46-0.78-0.97-1.03-1.55c-0.25-0.57-0.37-1.25-0.37-2.02c0-0.95,0.21-1.78,0.64-2.48c0.43-0.7,0.99-1.28,1.7-1.74
			c0.7-0.46,1.5-0.8,2.4-1.02c0.9-0.22,1.81-0.33,2.74-0.33c2.12,0,3.67,0.24,4.64,0.72v3.32c-1.15-0.83-2.63-1.24-4.44-1.24
			c-0.5,0-1,0.05-1.49,0.14c-0.49,0.09-0.94,0.25-1.33,0.47c-0.39,0.22-0.71,0.49-0.95,0.83c-0.25,0.34-0.37,0.75-0.37,1.23
			c0,0.45,0.09,0.84,0.28,1.17c0.19,0.33,0.46,0.63,0.83,0.9c0.36,0.27,0.81,0.54,1.33,0.8s1.13,0.54,1.82,0.84
			c0.71,0.37,1.37,0.75,2,1.16c0.63,0.41,1.18,0.85,1.65,1.34c0.48,0.49,0.85,1.03,1.13,1.63c0.28,0.6,0.42,1.28,0.42,2.04
			c0,1.03-0.21,1.89-0.62,2.6c-0.41,0.71-0.97,1.28-1.67,1.72c-0.7,0.44-1.51,0.76-2.42,0.96c-0.91,0.2-1.88,0.3-2.9,0.3
			c-0.34,0-0.76-0.03-1.25-0.08s-1-0.13-1.52-0.23s-1.01-0.22-1.47-0.36C246.07,58.75,245.7,58.59,245.41,58.41z"/>
		<path d="M273.31,48.74c0,0.75-0.15,1.45-0.45,2.08c-0.3,0.63-0.71,1.17-1.25,1.62s-1.19,0.8-1.95,1.05
			c-0.76,0.25-1.61,0.38-2.54,0.38h-1.77v5.34h-3.41V44.02h5.3c1.99,0,3.5,0.4,4.52,1.21C272.8,46.03,273.31,47.2,273.31,48.74z
			 M269.75,48.84c0-0.85-0.24-1.46-0.73-1.84c-0.49-0.38-1.22-0.57-2.21-0.57h-1.46v5.06h1.34c1,0,1.76-0.22,2.28-0.65
			C269.49,50.4,269.75,49.73,269.75,48.84z"/>
		<path d="M288.85,59.21h-3.67l-1.27-3.53h-5.72l-1.22,3.53h-3.67l5.89-15.19H283L288.85,59.21z M283.13,53.23l-1.68-4.82
			c-0.08-0.24-0.16-0.51-0.24-0.8c-0.08-0.29-0.12-0.54-0.14-0.77H281c-0.03,0.22-0.08,0.46-0.15,0.74
			c-0.07,0.28-0.15,0.56-0.25,0.85l-1.6,4.79H283.13z"/>
		<path d="M302.51,58.63c-1.23,0.57-2.81,0.85-4.72,0.85c-1.23,0-2.34-0.18-3.33-0.54c-0.98-0.36-1.82-0.87-2.5-1.53
			c-0.68-0.66-1.21-1.45-1.58-2.38c-0.37-0.93-0.55-1.96-0.55-3.1c0-1.21,0.21-2.32,0.63-3.32c0.42-1,1.01-1.86,1.77-2.58
			c0.76-0.72,1.67-1.28,2.73-1.67c1.06-0.4,2.23-0.59,3.51-0.59c1.62,0,2.97,0.2,4.04,0.59v2.91c-1.09-0.61-2.32-0.92-3.69-0.92
			c-0.83,0-1.58,0.13-2.25,0.38s-1.24,0.61-1.71,1.08c-0.47,0.47-0.83,1.03-1.09,1.7c-0.25,0.66-0.38,1.41-0.38,2.23
			c0,0.78,0.12,1.49,0.35,2.13s0.57,1.18,1.02,1.62s0.98,0.79,1.62,1.03c0.64,0.24,1.35,0.36,2.16,0.36c1.51,0,2.83-0.33,3.97-0.99
			V58.63z"/>
		<path d="M315.44,59.21h-9.5V44.02h9.12v2.52h-5.71v3.74h5.26v2.52h-5.26v3.92h6.09V59.21z"/>
		<path d="M326.98,59.21V38.95h6.43c1.96,0,3.51,0.43,4.66,1.29s1.72,1.97,1.72,3.35c0,1.15-0.33,2.15-0.97,3
			c-0.65,0.85-1.55,1.45-2.7,1.81v0.06c1.39,0.16,2.51,0.68,3.34,1.55c0.83,0.87,1.25,2,1.25,3.4c0,1.73-0.68,3.14-2.05,4.21
			c-1.37,1.07-3.09,1.61-5.17,1.61H326.98z M330.33,41.65v5.77h2.18c1.17,0,2.08-0.28,2.75-0.83s1-1.33,1-2.34
			c0-1.73-1.16-2.6-3.48-2.6H330.33z M330.33,50.11v6.42h2.87c1.25,0,2.22-0.29,2.9-0.87c0.68-0.58,1.03-1.38,1.03-2.4
			c0-2.1-1.46-3.15-4.37-3.15H330.33z"/>
		<path d="M357.58,59.21h-3.67l-1.27-3.53h-5.72l-1.22,3.53h-3.67l5.89-15.19h3.82L357.58,59.21z M351.85,53.23l-1.68-4.82
			c-0.08-0.24-0.17-0.51-0.24-0.8c-0.08-0.29-0.12-0.54-0.14-0.77h-0.07c-0.03,0.22-0.08,0.46-0.15,0.74
			c-0.07,0.28-0.15,0.56-0.25,0.85l-1.6,4.79H351.85z"/>
		<path d="M372.8,59.21h-3.98l-2.35-4.1c-0.2-0.35-0.39-0.64-0.56-0.88c-0.18-0.24-0.36-0.42-0.54-0.57
			c-0.18-0.14-0.37-0.24-0.57-0.3c-0.2-0.06-0.42-0.08-0.65-0.08h-0.76v5.92h-3.41V44.02h5.58c1.84,0,3.25,0.35,4.23,1.05
			s1.47,1.71,1.47,3.04c0,0.54-0.09,1.03-0.27,1.48c-0.18,0.45-0.43,0.85-0.75,1.2s-0.7,0.66-1.15,0.9
			c-0.45,0.25-0.94,0.45-1.48,0.59v0.04c0.42,0.16,0.81,0.42,1.17,0.76c0.35,0.35,0.71,0.8,1.07,1.37L372.8,59.21z M367.7,48.4
			c0-0.74-0.23-1.26-0.68-1.56c-0.46-0.3-1.14-0.45-2.06-0.45h-1.57v4.51h1.13c0.47,0,0.9-0.05,1.29-0.16c0.39-0.1,0.72-0.26,1-0.47
			c0.28-0.21,0.49-0.47,0.65-0.78C367.62,49.19,367.7,48.83,367.7,48.4z"/>
	</g>
</g>
</svg>
